<mxfile host="Electron" modified="2023-11-09T04:57:33.558Z" agent="Mozilla/5.0 (Macintosh; Intel Mac OS X 10_15_7) AppleWebKit/537.36 (KHTML, like Gecko) draw.io/22.0.3 Chrome/114.0.5735.289 Electron/25.8.4 Safari/537.36" etag="mb4eA-qlR4C8x7aD6g2X" version="22.0.3" type="device">
  <diagram name="Page-1" id="8R8p8WOGXn6GYmeLdF4O">
    <mxGraphModel dx="1242" dy="822" grid="1" gridSize="10" guides="1" tooltips="1" connect="1" arrows="1" fold="1" page="1" pageScale="1" pageWidth="2000" pageHeight="2000" math="0" shadow="0">
      <root>
        <mxCell id="0" />
        <mxCell id="1" parent="0" />
        <mxCell id="58J77CmHHtezco-8vGAR-23" style="edgeStyle=orthogonalEdgeStyle;rounded=0;orthogonalLoop=1;jettySize=auto;html=1;entryX=0;entryY=0.5;entryDx=0;entryDy=0;" parent="1" source="58J77CmHHtezco-8vGAR-1" target="58J77CmHHtezco-8vGAR-2" edge="1">
          <mxGeometry relative="1" as="geometry" />
        </mxCell>
        <mxCell id="58J77CmHHtezco-8vGAR-1" value="Create Order" style="rounded=1;whiteSpace=wrap;html=1;" parent="1" vertex="1">
          <mxGeometry x="120" y="280" width="120" height="60" as="geometry" />
        </mxCell>
        <mxCell id="58J77CmHHtezco-8vGAR-8" style="edgeStyle=orthogonalEdgeStyle;rounded=0;orthogonalLoop=1;jettySize=auto;html=1;entryX=0.5;entryY=0;entryDx=0;entryDy=0;" parent="1" source="58J77CmHHtezco-8vGAR-2" target="58J77CmHHtezco-8vGAR-3" edge="1">
          <mxGeometry relative="1" as="geometry" />
        </mxCell>
        <mxCell id="58J77CmHHtezco-8vGAR-2" value="Create ServiceRequest(s)&lt;br&gt;&lt;i&gt;active&lt;/i&gt;" style="rounded=0;whiteSpace=wrap;html=1;" parent="1" vertex="1">
          <mxGeometry x="320" y="280" width="120" height="60" as="geometry" />
        </mxCell>
        <mxCell id="58J77CmHHtezco-8vGAR-3" value="Create Task(s)/GroupTask(s)&lt;br&gt;&lt;i&gt;requested&lt;/i&gt;" style="rounded=0;whiteSpace=wrap;html=1;" parent="1" vertex="1">
          <mxGeometry x="320" y="410" width="120" height="60" as="geometry" />
        </mxCell>
        <mxCell id="58J77CmHHtezco-8vGAR-4" value="GroupTask Subscription&lt;br&gt;&lt;i&gt;requested/cancelled&lt;/i&gt;" style="rounded=0;whiteSpace=wrap;html=1;" parent="1" vertex="1">
          <mxGeometry x="840" y="160" width="120" height="60" as="geometry" />
        </mxCell>
        <mxCell id="58J77CmHHtezco-8vGAR-7" style="edgeStyle=orthogonalEdgeStyle;rounded=0;orthogonalLoop=1;jettySize=auto;html=1;entryX=0.5;entryY=0;entryDx=0;entryDy=0;" parent="1" source="58J77CmHHtezco-8vGAR-5" target="58J77CmHHtezco-8vGAR-6" edge="1">
          <mxGeometry relative="1" as="geometry" />
        </mxCell>
        <mxCell id="58J77CmHHtezco-8vGAR-5" value="GroupTask Notification&lt;br&gt;&lt;i&gt;requested&lt;/i&gt;" style="rounded=0;whiteSpace=wrap;html=1;" parent="1" vertex="1">
          <mxGeometry x="840" y="280" width="120" height="60" as="geometry" />
        </mxCell>
        <mxCell id="58J77CmHHtezco-8vGAR-6" value="Get Task(s)/ ServiceRequest(s)" style="rounded=0;whiteSpace=wrap;html=1;" parent="1" vertex="1">
          <mxGeometry x="840" y="400" width="120" height="60" as="geometry" />
        </mxCell>
        <mxCell id="58J77CmHHtezco-8vGAR-9" value="&lt;font style=&quot;font-size: 20px;&quot;&gt;FHIR Request Service&lt;/font&gt;" style="rounded=0;whiteSpace=wrap;html=1;" parent="1" vertex="1">
          <mxGeometry x="570" y="140" width="120" height="1180" as="geometry" />
        </mxCell>
        <mxCell id="58J77CmHHtezco-8vGAR-10" value="" style="endArrow=none;html=1;rounded=0;" parent="1" edge="1">
          <mxGeometry width="50" height="50" relative="1" as="geometry">
            <mxPoint x="460" y="470" as="sourcePoint" />
            <mxPoint x="460" y="281" as="targetPoint" />
          </mxGeometry>
        </mxCell>
        <mxCell id="58J77CmHHtezco-8vGAR-11" value="" style="endArrow=classic;html=1;rounded=0;entryX=0;entryY=0.129;entryDx=0;entryDy=0;entryPerimeter=0;" parent="1" edge="1">
          <mxGeometry width="50" height="50" relative="1" as="geometry">
            <mxPoint x="460" y="371" as="sourcePoint" />
            <mxPoint x="570" y="371.94000000000005" as="targetPoint" />
          </mxGeometry>
        </mxCell>
        <mxCell id="58J77CmHHtezco-8vGAR-12" value="" style="endArrow=classic;html=1;rounded=0;exitX=0;exitY=0.5;exitDx=0;exitDy=0;edgeStyle=orthogonalEdgeStyle;" parent="1" source="58J77CmHHtezco-8vGAR-4" edge="1">
          <mxGeometry width="50" height="50" relative="1" as="geometry">
            <mxPoint x="470" y="260" as="sourcePoint" />
            <mxPoint x="690" y="190" as="targetPoint" />
          </mxGeometry>
        </mxCell>
        <mxCell id="58J77CmHHtezco-8vGAR-13" value="" style="endArrow=classic;html=1;rounded=0;entryX=0;entryY=0.5;entryDx=0;entryDy=0;edgeStyle=orthogonalEdgeStyle;" parent="1" target="58J77CmHHtezco-8vGAR-5" edge="1">
          <mxGeometry width="50" height="50" relative="1" as="geometry">
            <mxPoint x="690" y="310" as="sourcePoint" />
            <mxPoint x="701" y="201" as="targetPoint" />
          </mxGeometry>
        </mxCell>
        <mxCell id="58J77CmHHtezco-8vGAR-14" value="" style="endArrow=classic;html=1;rounded=0;exitX=0;exitY=0.25;exitDx=0;exitDy=0;edgeStyle=orthogonalEdgeStyle;" parent="1" source="58J77CmHHtezco-8vGAR-6" edge="1">
          <mxGeometry width="50" height="50" relative="1" as="geometry">
            <mxPoint x="700" y="320" as="sourcePoint" />
            <mxPoint x="690" y="414" as="targetPoint" />
          </mxGeometry>
        </mxCell>
        <mxCell id="58J77CmHHtezco-8vGAR-15" value="" style="endArrow=classic;html=1;rounded=0;entryX=0;entryY=0.75;entryDx=0;entryDy=0;edgeStyle=orthogonalEdgeStyle;exitX=1;exitY=0.258;exitDx=0;exitDy=0;exitPerimeter=0;" parent="1" source="58J77CmHHtezco-8vGAR-9" target="58J77CmHHtezco-8vGAR-6" edge="1">
          <mxGeometry width="50" height="50" relative="1" as="geometry">
            <mxPoint x="690" y="460" as="sourcePoint" />
            <mxPoint x="702" y="425" as="targetPoint" />
          </mxGeometry>
        </mxCell>
        <mxCell id="58J77CmHHtezco-8vGAR-16" value="Update Task(s)/ GroupTask&lt;br&gt;&lt;i&gt;received&lt;/i&gt;" style="rounded=0;whiteSpace=wrap;html=1;" parent="1" vertex="1">
          <mxGeometry x="840" y="520" width="120" height="60" as="geometry" />
        </mxCell>
        <mxCell id="58J77CmHHtezco-8vGAR-17" value="Update Task(s)/ GroupTask&lt;br&gt;&lt;i&gt;accepted&lt;/i&gt;" style="rounded=0;whiteSpace=wrap;html=1;" parent="1" vertex="1">
          <mxGeometry x="840" y="640" width="120" height="60" as="geometry" />
        </mxCell>
        <mxCell id="58J77CmHHtezco-8vGAR-18" value="Update Task(s)/ GroupTask&lt;br&gt;&lt;i&gt;in-progress&lt;/i&gt;" style="rounded=0;whiteSpace=wrap;html=1;" parent="1" vertex="1">
          <mxGeometry x="840" y="880" width="120" height="60" as="geometry" />
        </mxCell>
        <mxCell id="58J77CmHHtezco-8vGAR-19" value="Update Task(s)/ GroupTask&lt;br&gt;&lt;i&gt;rejected&lt;/i&gt;" style="rounded=0;whiteSpace=wrap;html=1;" parent="1" vertex="1">
          <mxGeometry x="840" y="760" width="120" height="60" as="geometry" />
        </mxCell>
        <mxCell id="58J77CmHHtezco-8vGAR-20" value="Update Task(s)/ GroupTask&lt;br&gt;&lt;i&gt;completed&lt;/i&gt;" style="rounded=0;whiteSpace=wrap;html=1;" parent="1" vertex="1">
          <mxGeometry x="840" y="1120" width="120" height="60" as="geometry" />
        </mxCell>
        <mxCell id="58J77CmHHtezco-8vGAR-21" value="Update Task(s)/ GroupTask&lt;br&gt;&lt;i&gt;failed&lt;/i&gt;" style="rounded=0;whiteSpace=wrap;html=1;" parent="1" vertex="1">
          <mxGeometry x="840" y="1240" width="120" height="60" as="geometry" />
        </mxCell>
        <mxCell id="58J77CmHHtezco-8vGAR-22" value="GroupTask Subscription&lt;br&gt;&lt;i&gt;&quot;status&quot;&lt;/i&gt;" style="rounded=0;whiteSpace=wrap;html=1;" parent="1" vertex="1">
          <mxGeometry x="320" y="160" width="120" height="60" as="geometry" />
        </mxCell>
        <mxCell id="58J77CmHHtezco-8vGAR-24" value="" style="endArrow=classic;html=1;rounded=0;exitX=1;exitY=0.5;exitDx=0;exitDy=0;edgeStyle=orthogonalEdgeStyle;entryX=-0.017;entryY=0.042;entryDx=0;entryDy=0;entryPerimeter=0;" parent="1" source="58J77CmHHtezco-8vGAR-22" target="58J77CmHHtezco-8vGAR-9" edge="1">
          <mxGeometry width="50" height="50" relative="1" as="geometry">
            <mxPoint x="470" y="451" as="sourcePoint" />
            <mxPoint x="560" y="190" as="targetPoint" />
          </mxGeometry>
        </mxCell>
        <mxCell id="58J77CmHHtezco-8vGAR-25" value="Cancel ServiceRequest&lt;br&gt;&lt;i&gt;revoked&lt;/i&gt;" style="rounded=0;whiteSpace=wrap;html=1;" parent="1" vertex="1">
          <mxGeometry x="320" y="520" width="120" height="60" as="geometry" />
        </mxCell>
        <mxCell id="58J77CmHHtezco-8vGAR-26" value="Cancel Order" style="rounded=1;whiteSpace=wrap;html=1;" parent="1" vertex="1">
          <mxGeometry x="120" y="520" width="120" height="60" as="geometry" />
        </mxCell>
        <mxCell id="58J77CmHHtezco-8vGAR-27" value="Cancel Task(s)/GroupTask&lt;br&gt;&lt;i&gt;cancelled&lt;/i&gt;" style="rounded=0;whiteSpace=wrap;html=1;" parent="1" vertex="1">
          <mxGeometry x="320" y="640" width="120" height="60" as="geometry" />
        </mxCell>
        <mxCell id="58J77CmHHtezco-8vGAR-28" style="edgeStyle=orthogonalEdgeStyle;rounded=0;orthogonalLoop=1;jettySize=auto;html=1;entryX=0.5;entryY=0;entryDx=0;entryDy=0;exitX=0.5;exitY=1;exitDx=0;exitDy=0;" parent="1" source="58J77CmHHtezco-8vGAR-25" target="58J77CmHHtezco-8vGAR-27" edge="1">
          <mxGeometry relative="1" as="geometry">
            <mxPoint x="390" y="340" as="sourcePoint" />
            <mxPoint x="390" y="410" as="targetPoint" />
          </mxGeometry>
        </mxCell>
        <mxCell id="58J77CmHHtezco-8vGAR-29" value="" style="endArrow=none;html=1;rounded=0;" parent="1" edge="1">
          <mxGeometry width="50" height="50" relative="1" as="geometry">
            <mxPoint x="460" y="709" as="sourcePoint" />
            <mxPoint x="460" y="520" as="targetPoint" />
          </mxGeometry>
        </mxCell>
        <mxCell id="58J77CmHHtezco-8vGAR-30" value="" style="endArrow=classic;html=1;rounded=0;entryX=0;entryY=0.129;entryDx=0;entryDy=0;entryPerimeter=0;edgeStyle=orthogonalEdgeStyle;" parent="1" edge="1">
          <mxGeometry width="50" height="50" relative="1" as="geometry">
            <mxPoint x="460" y="610" as="sourcePoint" />
            <mxPoint x="570" y="610.94" as="targetPoint" />
          </mxGeometry>
        </mxCell>
        <mxCell id="58J77CmHHtezco-8vGAR-31" style="edgeStyle=orthogonalEdgeStyle;rounded=0;orthogonalLoop=1;jettySize=auto;html=1;exitX=1;exitY=0.5;exitDx=0;exitDy=0;" parent="1" source="58J77CmHHtezco-8vGAR-26" edge="1">
          <mxGeometry relative="1" as="geometry">
            <mxPoint x="250" y="310" as="sourcePoint" />
            <mxPoint x="320" y="550" as="targetPoint" />
          </mxGeometry>
        </mxCell>
        <mxCell id="58J77CmHHtezco-8vGAR-32" value="" style="endArrow=none;html=1;rounded=0;" parent="1" edge="1">
          <mxGeometry width="50" height="50" relative="1" as="geometry">
            <mxPoint x="820" y="830" as="sourcePoint" />
            <mxPoint x="820" y="630" as="targetPoint" />
          </mxGeometry>
        </mxCell>
        <mxCell id="58J77CmHHtezco-8vGAR-33" value="" style="endArrow=classic;html=1;rounded=0;edgeStyle=orthogonalEdgeStyle;" parent="1" edge="1">
          <mxGeometry width="50" height="50" relative="1" as="geometry">
            <mxPoint x="820" y="967" as="sourcePoint" />
            <mxPoint x="692" y="968" as="targetPoint" />
            <Array as="points">
              <mxPoint x="755" y="968" />
              <mxPoint x="692" y="968" />
            </Array>
          </mxGeometry>
        </mxCell>
        <mxCell id="58J77CmHHtezco-8vGAR-41" style="edgeStyle=orthogonalEdgeStyle;rounded=0;orthogonalLoop=1;jettySize=auto;html=1;" parent="1" source="58J77CmHHtezco-8vGAR-34" target="58J77CmHHtezco-8vGAR-40" edge="1">
          <mxGeometry relative="1" as="geometry" />
        </mxCell>
        <mxCell id="58J77CmHHtezco-8vGAR-34" value="Complete Order" style="rounded=1;whiteSpace=wrap;html=1;" parent="1" vertex="1">
          <mxGeometry x="120" y="880" width="120" height="60" as="geometry" />
        </mxCell>
        <mxCell id="58J77CmHHtezco-8vGAR-35" value="GroupTask&lt;br&gt;Notification&lt;br&gt;&quot;&lt;i&gt;status&lt;/i&gt;&quot;" style="rounded=0;whiteSpace=wrap;html=1;" parent="1" vertex="1">
          <mxGeometry x="320" y="760" width="120" height="60" as="geometry" />
        </mxCell>
        <mxCell id="58J77CmHHtezco-8vGAR-36" value="Status Update" style="rounded=1;whiteSpace=wrap;html=1;" parent="1" vertex="1">
          <mxGeometry x="120" y="760" width="120" height="60" as="geometry" />
        </mxCell>
        <mxCell id="58J77CmHHtezco-8vGAR-37" style="edgeStyle=orthogonalEdgeStyle;rounded=0;orthogonalLoop=1;jettySize=auto;html=1;exitX=0;exitY=0.5;exitDx=0;exitDy=0;entryX=1;entryY=0.5;entryDx=0;entryDy=0;" parent="1" source="58J77CmHHtezco-8vGAR-35" target="58J77CmHHtezco-8vGAR-36" edge="1">
          <mxGeometry relative="1" as="geometry">
            <mxPoint x="250" y="560" as="sourcePoint" />
            <mxPoint x="330" y="560" as="targetPoint" />
          </mxGeometry>
        </mxCell>
        <mxCell id="58J77CmHHtezco-8vGAR-38" value="" style="endArrow=classic;html=1;rounded=0;entryX=1;entryY=0.5;entryDx=0;entryDy=0;exitX=0.015;exitY=0.715;exitDx=0;exitDy=0;exitPerimeter=0;edgeStyle=orthogonalEdgeStyle;" parent="1" target="58J77CmHHtezco-8vGAR-35" edge="1">
          <mxGeometry width="50" height="50" relative="1" as="geometry">
            <mxPoint x="571.8" y="789.3" as="sourcePoint" />
            <mxPoint x="702" y="660" as="targetPoint" />
          </mxGeometry>
        </mxCell>
        <mxCell id="58J77CmHHtezco-8vGAR-39" style="edgeStyle=orthogonalEdgeStyle;rounded=0;orthogonalLoop=1;jettySize=auto;html=1;entryX=0.5;entryY=0;entryDx=0;entryDy=0;exitX=0.5;exitY=1;exitDx=0;exitDy=0;dashed=1;dashPattern=8 8;" parent="1" source="58J77CmHHtezco-8vGAR-36" target="58J77CmHHtezco-8vGAR-34" edge="1">
          <mxGeometry relative="1" as="geometry">
            <mxPoint x="390" y="590" as="sourcePoint" />
            <mxPoint x="390" y="650" as="targetPoint" />
          </mxGeometry>
        </mxCell>
        <mxCell id="58J77CmHHtezco-8vGAR-40" value="Complete&lt;br&gt;ServiceRequest&lt;br&gt;&lt;i&gt;completed&lt;/i&gt;" style="rounded=0;whiteSpace=wrap;html=1;" parent="1" vertex="1">
          <mxGeometry x="320" y="880" width="120" height="60" as="geometry" />
        </mxCell>
        <mxCell id="58J77CmHHtezco-8vGAR-42" style="edgeStyle=orthogonalEdgeStyle;rounded=0;orthogonalLoop=1;jettySize=auto;html=1;entryX=-0.001;entryY=0.833;entryDx=0;entryDy=0;entryPerimeter=0;" parent="1" source="58J77CmHHtezco-8vGAR-40" edge="1">
          <mxGeometry relative="1" as="geometry">
            <mxPoint x="569.8800000000001" y="909.6599999999999" as="targetPoint" />
          </mxGeometry>
        </mxCell>
        <mxCell id="58J77CmHHtezco-8vGAR-44" value="Cancel Task(s)/GroupTask&lt;br&gt;&lt;i&gt;cancelled&lt;/i&gt;" style="rounded=0;whiteSpace=wrap;html=1;" parent="1" vertex="1">
          <mxGeometry x="320" y="1000" width="120" height="60" as="geometry" />
        </mxCell>
        <mxCell id="58J77CmHHtezco-8vGAR-45" style="edgeStyle=orthogonalEdgeStyle;rounded=0;orthogonalLoop=1;jettySize=auto;html=1;dashed=1;dashPattern=8 8;" parent="1" target="58J77CmHHtezco-8vGAR-44" edge="1">
          <mxGeometry relative="1" as="geometry">
            <mxPoint x="380" y="940" as="sourcePoint" />
            <mxPoint x="190" y="890" as="targetPoint" />
          </mxGeometry>
        </mxCell>
        <mxCell id="tBrtz9nmKrQYxcQgaU5S-2" style="edgeStyle=orthogonalEdgeStyle;rounded=0;orthogonalLoop=1;jettySize=auto;html=1;entryX=1;entryY=0.5;entryDx=0;entryDy=0;" parent="1" source="58J77CmHHtezco-8vGAR-47" target="58J77CmHHtezco-8vGAR-16" edge="1">
          <mxGeometry relative="1" as="geometry">
            <Array as="points">
              <mxPoint x="1140" y="550" />
            </Array>
          </mxGeometry>
        </mxCell>
        <mxCell id="58J77CmHHtezco-8vGAR-47" value="Process Order" style="rounded=1;whiteSpace=wrap;html=1;" parent="1" vertex="1">
          <mxGeometry x="1080" y="400" width="120" height="60" as="geometry" />
        </mxCell>
        <mxCell id="58J77CmHHtezco-8vGAR-48" value="" style="endArrow=classic;html=1;rounded=0;edgeStyle=orthogonalEdgeStyle;exitX=1;exitY=0.5;exitDx=0;exitDy=0;" parent="1" source="58J77CmHHtezco-8vGAR-6" target="58J77CmHHtezco-8vGAR-47" edge="1">
          <mxGeometry width="50" height="50" relative="1" as="geometry">
            <mxPoint x="910" y="430" as="sourcePoint" />
            <mxPoint x="850" y="455" as="targetPoint" />
          </mxGeometry>
        </mxCell>
        <mxCell id="58J77CmHHtezco-8vGAR-49" value="Finalise Fulfilment" style="rounded=1;whiteSpace=wrap;html=1;" parent="1" vertex="1">
          <mxGeometry x="1080" y="1180" width="120" height="60" as="geometry" />
        </mxCell>
        <mxCell id="58J77CmHHtezco-8vGAR-50" value="" style="endArrow=none;html=1;rounded=0;" parent="1" edge="1">
          <mxGeometry width="50" height="50" relative="1" as="geometry">
            <mxPoint x="980" y="830" as="sourcePoint" />
            <mxPoint x="980" y="630" as="targetPoint" />
          </mxGeometry>
        </mxCell>
        <mxCell id="58J77CmHHtezco-8vGAR-51" value="" style="endArrow=classic;html=1;rounded=0;edgeStyle=orthogonalEdgeStyle;" parent="1" edge="1">
          <mxGeometry width="50" height="50" relative="1" as="geometry">
            <mxPoint x="1080" y="1209.5" as="sourcePoint" />
            <mxPoint x="980" y="1209.5" as="targetPoint" />
            <Array as="points" />
          </mxGeometry>
        </mxCell>
        <mxCell id="58J77CmHHtezco-8vGAR-53" value="Placer" style="text;html=1;strokeColor=none;fillColor=none;align=center;verticalAlign=middle;whiteSpace=wrap;rounded=0;fontStyle=1;fontSize=24;" parent="1" vertex="1">
          <mxGeometry x="150" y="92" width="60" height="30" as="geometry" />
        </mxCell>
        <mxCell id="58J77CmHHtezco-8vGAR-54" value="Filler" style="text;html=1;strokeColor=none;fillColor=none;align=center;verticalAlign=middle;whiteSpace=wrap;rounded=0;fontStyle=1;fontSize=24;" parent="1" vertex="1">
          <mxGeometry x="1110" y="92" width="60" height="30" as="geometry" />
        </mxCell>
        <mxCell id="tBrtz9nmKrQYxcQgaU5S-6" style="edgeStyle=orthogonalEdgeStyle;rounded=0;orthogonalLoop=1;jettySize=auto;html=1;" parent="1" source="tBrtz9nmKrQYxcQgaU5S-1" edge="1">
          <mxGeometry relative="1" as="geometry">
            <mxPoint x="980" y="960" as="targetPoint" />
          </mxGeometry>
        </mxCell>
        <mxCell id="tBrtz9nmKrQYxcQgaU5S-1" value="Scanned Barcode/ Process Patient" style="rounded=1;whiteSpace=wrap;html=1;" parent="1" vertex="1">
          <mxGeometry x="1080" y="930" width="120" height="60" as="geometry" />
        </mxCell>
        <mxCell id="tBrtz9nmKrQYxcQgaU5S-3" value="" style="endArrow=classic;html=1;rounded=0;exitX=0;exitY=0.5;exitDx=0;exitDy=0;edgeStyle=orthogonalEdgeStyle;" parent="1" source="58J77CmHHtezco-8vGAR-16" edge="1">
          <mxGeometry width="50" height="50" relative="1" as="geometry">
            <mxPoint x="850" y="425" as="sourcePoint" />
            <mxPoint x="690" y="550" as="targetPoint" />
          </mxGeometry>
        </mxCell>
        <mxCell id="tBrtz9nmKrQYxcQgaU5S-5" value="" style="endArrow=classic;html=1;rounded=0;edgeStyle=orthogonalEdgeStyle;entryX=1;entryY=0.52;entryDx=0;entryDy=0;entryPerimeter=0;" parent="1" edge="1">
          <mxGeometry width="50" height="50" relative="1" as="geometry">
            <mxPoint x="820" y="730" as="sourcePoint" />
            <mxPoint x="690" y="730.4000000000001" as="targetPoint" />
          </mxGeometry>
        </mxCell>
        <mxCell id="tBrtz9nmKrQYxcQgaU5S-7" value="Update Task(s)/ GroupTask&lt;br&gt;&lt;i&gt;rejected&lt;/i&gt;" style="rounded=0;whiteSpace=wrap;html=1;" parent="1" vertex="1">
          <mxGeometry x="840" y="990" width="120" height="60" as="geometry" />
        </mxCell>
        <mxCell id="tBrtz9nmKrQYxcQgaU5S-8" value="" style="endArrow=none;html=1;rounded=0;" parent="1" edge="1">
          <mxGeometry width="50" height="50" relative="1" as="geometry">
            <mxPoint x="819.5" y="1070" as="sourcePoint" />
            <mxPoint x="819.5" y="870" as="targetPoint" />
          </mxGeometry>
        </mxCell>
        <mxCell id="tBrtz9nmKrQYxcQgaU5S-9" value="" style="endArrow=none;html=1;rounded=0;" parent="1" edge="1">
          <mxGeometry width="50" height="50" relative="1" as="geometry">
            <mxPoint x="979.5" y="1070" as="sourcePoint" />
            <mxPoint x="979.5" y="870" as="targetPoint" />
          </mxGeometry>
        </mxCell>
        <mxCell id="tBrtz9nmKrQYxcQgaU5S-10" style="edgeStyle=orthogonalEdgeStyle;rounded=0;orthogonalLoop=1;jettySize=auto;html=1;exitX=0.5;exitY=1;exitDx=0;exitDy=0;" parent="1" source="58J77CmHHtezco-8vGAR-47" edge="1">
          <mxGeometry relative="1" as="geometry">
            <mxPoint x="1150" y="470" as="sourcePoint" />
            <mxPoint x="980" y="730" as="targetPoint" />
            <Array as="points">
              <mxPoint x="1140" y="730" />
            </Array>
          </mxGeometry>
        </mxCell>
        <mxCell id="tBrtz9nmKrQYxcQgaU5S-11" value="" style="endArrow=none;html=1;rounded=0;" parent="1" edge="1">
          <mxGeometry width="50" height="50" relative="1" as="geometry">
            <mxPoint x="819.5" y="1310" as="sourcePoint" />
            <mxPoint x="819.5" y="1110" as="targetPoint" />
          </mxGeometry>
        </mxCell>
        <mxCell id="tBrtz9nmKrQYxcQgaU5S-12" value="" style="endArrow=none;html=1;rounded=0;" parent="1" edge="1">
          <mxGeometry width="50" height="50" relative="1" as="geometry">
            <mxPoint x="979.5" y="1310" as="sourcePoint" />
            <mxPoint x="979.5" y="1110" as="targetPoint" />
          </mxGeometry>
        </mxCell>
        <mxCell id="tBrtz9nmKrQYxcQgaU5S-13" value="" style="endArrow=classic;html=1;rounded=0;entryX=0.5;entryY=0;entryDx=0;entryDy=0;" parent="1" target="tBrtz9nmKrQYxcQgaU5S-1" edge="1">
          <mxGeometry width="50" height="50" relative="1" as="geometry">
            <mxPoint x="1140" y="730" as="sourcePoint" />
            <mxPoint x="710" y="860" as="targetPoint" />
          </mxGeometry>
        </mxCell>
        <mxCell id="tBrtz9nmKrQYxcQgaU5S-14" value="" style="endArrow=classic;html=1;rounded=0;entryX=0.5;entryY=0;entryDx=0;entryDy=0;exitX=0.5;exitY=1;exitDx=0;exitDy=0;" parent="1" source="tBrtz9nmKrQYxcQgaU5S-1" target="58J77CmHHtezco-8vGAR-49" edge="1">
          <mxGeometry width="50" height="50" relative="1" as="geometry">
            <mxPoint x="1150" y="740" as="sourcePoint" />
            <mxPoint x="1150" y="940" as="targetPoint" />
          </mxGeometry>
        </mxCell>
        <mxCell id="tBrtz9nmKrQYxcQgaU5S-15" value="" style="endArrow=classic;html=1;rounded=0;edgeStyle=orthogonalEdgeStyle;" parent="1" edge="1">
          <mxGeometry width="50" height="50" relative="1" as="geometry">
            <mxPoint x="818" y="1207" as="sourcePoint" />
            <mxPoint x="690" y="1208" as="targetPoint" />
            <Array as="points">
              <mxPoint x="753" y="1208" />
              <mxPoint x="690" y="1208" />
            </Array>
          </mxGeometry>
        </mxCell>
      </root>
    </mxGraphModel>
  </diagram>
</mxfile>
